<svg width="24" height="24" viewBox="0 0 24 24" fill="none" xmlns="http://www.w3.org/2000/svg">
<path d="M21.179 12.7944L21.192 12.8084L12 22.0004L2.808 12.8084L2.821 12.7944C1.75356 11.5499 1.19584 9.94807 1.25959 8.30977C1.32334 6.67148 2.00384 5.11779 3.16475 3.96005C4.32566 2.8023 5.8812 2.12603 7.51966 2.06675C9.15812 2.00747 10.7585 2.56956 12 3.64039C13.2415 2.56956 14.8419 2.00747 16.4803 2.06675C18.1188 2.12603 19.6743 2.8023 20.8352 3.96005C21.9962 5.11779 22.6767 6.67148 22.7404 8.30977C22.8042 9.94807 22.2464 11.5499 21.179 12.7944Z" fill="#F9595F"/>
</svg>
