<svg width="24" height="24" viewBox="0 0 24 24" fill="none" xmlns="http://www.w3.org/2000/svg">
<rect width="24" height="24" fill="black"/>
<path d="M0 0H24V24H0V0Z" fill="white"/>
<path d="M12 22.0004L2.808 12.8084C0.628003 10.2404 0.742003 6.38839 3.161 3.96839C4.32102 2.8084 5.87675 2.12994 7.51611 2.0691C9.15547 2.00827 10.7572 2.56956 12 3.64039C13.2415 2.56956 14.8419 2.00747 16.4803 2.06675C18.1188 2.12603 19.6743 2.8023 20.8353 3.96005C21.9962 5.11779 22.6767 6.67148 22.7404 8.30977C22.8042 9.94807 22.2464 11.5499 21.179 12.7944L12 22.0004ZM19.662 11.4914C20.4008 10.6298 20.7868 9.52083 20.7426 8.38669C20.6983 7.25255 20.2272 6.17702 19.4235 5.37559C18.6198 4.57416 17.5429 4.10604 16.4086 4.06502C15.2744 4.024 14.1665 4.41311 13.307 5.15439L12 6.28239L10.693 5.15439C9.83351 4.41311 8.72564 4.024 7.59138 4.06502C6.45712 4.10604 5.38026 4.57416 4.57655 5.37559C3.77285 6.17702 3.30167 7.25255 3.25744 8.38669C3.2132 9.52083 3.59917 10.6298 4.338 11.4914L4.452 11.6234L12 19.1724L19.548 11.6234L19.662 11.4914V11.4914Z" fill="black"/>
</svg>
